<svg width="1336" height="317" viewBox="0 0 1336 317" fill="none" xmlns="http://www.w3.org/2000/svg">
<path d="M304.259 54.3008L318.512 4.19531H325.416L321.421 23.6753L306.084 76H299.229L304.259 54.3008ZM289.514 4.19531L300.856 53.3145L304.259 76H297.453L280.045 4.19531H289.514ZM343.86 53.2651L354.956 4.19531H364.474L347.115 76H340.309L343.86 53.2651ZM326.452 4.19531L340.309 54.3008L345.34 76H338.485L323.69 23.6753L319.646 4.19531H326.452ZM394.212 76.9863C389.248 76.9863 384.924 75.8849 381.242 73.6821C377.593 71.4793 374.749 68.4382 372.71 64.5586C370.705 60.6462 369.702 56.1912 369.702 51.1938V49.1226C369.702 43.3032 370.803 38.3551 373.006 34.2783C375.242 30.1686 378.135 27.0452 381.686 24.9082C385.27 22.7383 389.05 21.6533 393.029 21.6533C398.125 21.6533 402.284 22.804 405.506 25.1055C408.761 27.374 411.144 30.481 412.657 34.4263C414.202 38.3387 414.974 42.7936 414.974 47.791V51.8843H375.127V44.4375H405.851V43.7471C405.719 41.3799 405.226 39.0785 404.371 36.8428C403.55 34.6071 402.234 32.766 400.426 31.3193C398.618 29.8727 396.152 29.1494 393.029 29.1494C390.267 29.1494 387.818 29.922 385.681 31.4673C383.543 33.0125 381.867 35.2811 380.65 38.2729C379.467 41.2319 378.875 44.8485 378.875 49.1226V51.1938C378.875 54.5474 379.5 57.6214 380.749 60.416C381.998 63.1777 383.807 65.397 386.174 67.0737C388.541 68.7176 391.385 69.5396 394.705 69.5396C397.927 69.5396 400.656 68.882 402.892 67.5669C405.128 66.2518 407.084 64.4928 408.761 62.29L414.284 66.6792C412.574 69.3094 410.125 71.693 406.936 73.8301C403.747 75.9342 399.506 76.9863 394.212 76.9863ZM485.294 66.8765V39.4072C485.294 36.251 484.341 33.7358 482.434 31.8618C480.56 29.9549 477.765 29.0015 474.05 29.0015C471.749 29.0015 469.727 29.396 467.984 30.1851C466.275 30.9741 464.927 32.0098 463.94 33.292C462.987 34.5742 462.51 35.9551 462.51 37.4346H453.387C453.387 34.8701 454.258 32.3879 456 29.9878C457.743 27.5549 460.192 25.5658 463.349 24.0205C466.538 22.4424 470.286 21.6533 474.593 21.6533C478.472 21.6533 481.892 22.3109 484.851 23.626C487.842 24.9411 490.177 26.9302 491.853 29.5933C493.563 32.2235 494.418 35.5277 494.418 39.5059V64.3613C494.418 66.1367 494.566 68.0272 494.862 70.0327C495.191 72.0382 495.667 73.7643 496.292 75.2109V76H486.774C486.314 74.9479 485.952 73.5506 485.689 71.8081C485.426 70.0327 485.294 68.3888 485.294 66.8765ZM486.872 43.6484L486.971 50.0596H477.749C472.521 50.0596 468.494 50.8815 465.666 52.5254C462.839 54.1364 461.425 56.6022 461.425 59.9229C461.425 62.4544 462.28 64.6079 463.99 66.3833C465.699 68.1258 468.247 68.9971 471.634 68.9971C474.428 68.9971 476.894 68.4053 479.031 67.2217C481.168 66.0381 482.861 64.5915 484.111 62.8818C485.393 61.1722 486.083 59.5119 486.182 57.9009L490.078 62.29C489.848 63.6709 489.223 65.1997 488.204 66.8765C487.185 68.5532 485.82 70.1642 484.111 71.7095C482.434 73.2218 480.428 74.4876 478.094 75.5068C475.793 76.4932 473.195 76.9863 470.302 76.9863C466.686 76.9863 463.513 76.2795 460.784 74.8657C458.088 73.452 455.984 71.5615 454.472 69.1943C452.992 66.7943 452.252 64.1147 452.252 61.1558C452.252 55.4351 454.422 51.0952 458.762 48.1362C463.102 45.1444 468.938 43.6484 476.269 43.6484H486.872ZM517.893 31.0234V76H508.769V22.6396H517.646L517.893 31.0234ZM534.561 22.3438L534.512 30.8262C533.756 30.6618 533.033 30.5632 532.342 30.5303C531.685 30.4645 530.928 30.4316 530.074 30.4316C527.246 30.4316 524.879 31.007 522.972 32.1577C521.065 33.3084 519.569 34.8866 518.484 36.8921C517.432 38.8647 516.775 41.1497 516.512 43.7471L513.947 45.2266C513.947 40.9525 514.523 37.04 515.673 33.4893C516.824 29.9056 518.616 27.0452 521.049 24.9082C523.515 22.7383 526.671 21.6533 530.518 21.6533C531.175 21.6533 531.931 21.7355 532.786 21.8999C533.641 22.0314 534.233 22.1794 534.561 22.3438ZM564.151 76.9863C559.187 76.9863 554.863 75.8849 551.181 73.6821C547.532 71.4793 544.688 68.4382 542.649 64.5586C540.644 60.6462 539.641 56.1912 539.641 51.1938V49.1226C539.641 43.3032 540.742 38.3551 542.945 34.2783C545.181 30.1686 548.074 27.0452 551.625 24.9082C555.209 22.7383 558.99 21.6533 562.968 21.6533C568.064 21.6533 572.223 22.804 575.445 25.1055C578.7 27.374 581.083 30.481 582.596 34.4263C584.141 38.3387 584.914 42.7936 584.914 47.791V51.8843H545.066V44.4375H575.79V43.7471C575.658 41.3799 575.165 39.0785 574.31 36.8428C573.489 34.6071 572.173 32.766 570.365 31.3193C568.557 29.8727 566.091 29.1494 562.968 29.1494C560.206 29.1494 557.757 29.922 555.62 31.4673C553.483 33.0125 551.806 35.2811 550.589 38.2729C549.406 41.2319 548.814 44.8485 548.814 49.1226V51.1938C548.814 54.5474 549.439 57.6214 550.688 60.416C551.937 63.1777 553.746 65.397 556.113 67.0737C558.48 68.7176 561.324 69.5396 564.644 69.5396C567.866 69.5396 570.595 68.882 572.831 67.5669C575.067 66.2518 577.023 64.4928 578.7 62.29L584.223 66.6792C582.513 69.3094 580.064 71.693 576.875 73.8301C573.686 75.9342 569.445 76.9863 564.151 76.9863ZM655.233 66.8765V39.4072C655.233 36.251 654.28 33.7358 652.373 31.8618C650.499 29.9549 647.704 29.0015 643.989 29.0015C641.688 29.0015 639.666 29.396 637.923 30.1851C636.214 30.9741 634.866 32.0098 633.879 33.292C632.926 34.5742 632.449 35.9551 632.449 37.4346H623.326C623.326 34.8701 624.197 32.3879 625.939 29.9878C627.682 27.5549 630.131 25.5658 633.288 24.0205C636.477 22.4424 640.225 21.6533 644.532 21.6533C648.411 21.6533 651.831 22.3109 654.789 23.626C657.781 24.9411 660.116 26.9302 661.792 29.5933C663.502 32.2235 664.357 35.5277 664.357 39.5059V64.3613C664.357 66.1367 664.505 68.0272 664.801 70.0327C665.129 72.0382 665.606 73.7643 666.231 75.2109V76H656.713C656.253 74.9479 655.891 73.5506 655.628 71.8081C655.365 70.0327 655.233 68.3888 655.233 66.8765ZM656.811 43.6484L656.91 50.0596H647.688C642.46 50.0596 638.433 50.8815 635.605 52.5254C632.778 54.1364 631.364 56.6022 631.364 59.9229C631.364 62.4544 632.219 64.6079 633.929 66.3833C635.638 68.1258 638.186 68.9971 641.573 68.9971C644.367 68.9971 646.833 68.4053 648.97 67.2217C651.107 66.0381 652.8 64.5915 654.05 62.8818C655.332 61.1722 656.022 59.5119 656.121 57.9009L660.017 62.29C659.787 63.6709 659.162 65.1997 658.143 66.8765C657.124 68.5532 655.759 70.1642 654.05 71.7095C652.373 73.2218 650.367 74.4876 648.033 75.5068C645.732 76.4932 643.134 76.9863 640.241 76.9863C636.625 76.9863 633.452 76.2795 630.723 74.8657C628.027 73.452 625.923 71.5615 624.411 69.1943C622.931 66.7943 622.191 64.1147 622.191 61.1558C622.191 55.4351 624.361 51.0952 628.701 48.1362C633.041 45.1444 638.877 43.6484 646.208 43.6484H656.811ZM687.831 34.0317V76H678.708V22.6396H687.338L687.831 34.0317ZM685.662 47.2979L681.864 47.1499C681.93 42.2511 682.867 37.8949 684.675 34.0811C686.484 30.2344 688.999 27.2096 692.221 25.0068C695.476 22.7712 699.256 21.6533 703.563 21.6533C707.081 21.6533 710.106 22.2944 712.638 23.5767C715.202 24.8589 717.175 26.9302 718.556 29.7905C719.969 32.618 720.676 36.366 720.676 41.0347V76H711.503V40.936C711.503 38.1414 711.092 35.9058 710.27 34.229C709.449 32.5194 708.248 31.2865 706.67 30.5303C705.092 29.7412 703.152 29.3467 700.851 29.3467C698.582 29.3467 696.511 29.8234 694.637 30.7769C692.796 31.7303 691.201 33.0454 689.853 34.7222C688.538 36.3989 687.503 38.3223 686.747 40.4922C686.023 42.6292 685.662 44.8978 685.662 47.2979ZM784.881 76.9863C779.916 76.9863 775.593 75.8849 771.911 73.6821C768.261 71.4793 765.417 68.4382 763.379 64.5586C761.373 60.6462 760.371 56.1912 760.371 51.1938V49.1226C760.371 43.3032 761.472 38.3551 763.675 34.2783C765.91 30.1686 768.804 27.0452 772.354 24.9082C775.938 22.7383 779.719 21.6533 783.697 21.6533C788.793 21.6533 792.952 22.804 796.174 25.1055C799.429 27.374 801.813 30.481 803.325 34.4263C804.87 38.3387 805.643 42.7936 805.643 47.791V51.8843H765.795V44.4375H796.52V43.7471C796.388 41.3799 795.895 39.0785 795.04 36.8428C794.218 34.6071 792.903 32.766 791.095 31.3193C789.286 29.8727 786.821 29.1494 783.697 29.1494C780.936 29.1494 778.486 29.922 776.349 31.4673C774.212 33.0125 772.535 35.2811 771.319 38.2729C770.135 41.2319 769.543 44.8485 769.543 49.1226V51.1938C769.543 54.5474 770.168 57.6214 771.417 60.416C772.667 63.1777 774.475 65.397 776.842 67.0737C779.209 68.7176 782.053 69.5396 785.374 69.5396C788.596 69.5396 791.325 68.882 793.561 67.5669C795.796 66.2518 797.752 64.4928 799.429 62.29L804.953 66.6792C803.243 69.3094 800.794 71.693 797.604 73.8301C794.415 75.9342 790.174 76.9863 784.881 76.9863ZM822.46 22.6396L834.148 42.0703L845.984 22.6396H856.686L839.228 48.9746L857.228 76H846.674L834.345 55.9775L822.016 76H811.413L829.364 48.9746L811.956 22.6396H822.46ZM875.524 32.8975V96.5156H866.352V22.6396H874.735L875.524 32.8975ZM911.476 48.876V49.9116C911.476 55.1063 910.671 59.742 909.06 63.8188C907.449 67.8957 905.098 71.1177 902.007 73.4849C898.917 75.8192 895.169 76.9863 890.763 76.9863C886.226 76.9863 882.412 76 879.322 74.0273C876.231 72.0547 873.815 69.2437 872.072 65.5942C870.33 61.9448 869.195 57.6214 868.669 52.624V47.1006C869.195 41.8402 870.33 37.3195 872.072 33.5386C873.848 29.7248 876.264 26.7987 879.322 24.7603C882.379 22.689 886.144 21.6533 890.615 21.6533C895.119 21.6533 898.917 22.7876 902.007 25.0562C905.098 27.3247 907.449 30.5138 909.06 34.6235C910.671 38.7004 911.476 43.4512 911.476 48.876ZM902.303 49.9116V48.876C902.303 45.3252 901.794 42.0703 900.774 39.1113C899.788 36.1523 898.226 33.7852 896.089 32.0098C893.985 30.2344 891.273 29.3467 887.952 29.3467C885.651 29.3467 883.645 29.7412 881.936 30.5303C880.259 31.3193 878.829 32.3879 877.645 33.7358C876.461 35.0509 875.492 36.5633 874.735 38.2729C874.012 39.9497 873.47 41.6922 873.108 43.5005V56.2734C873.765 58.5749 874.686 60.7448 875.87 62.7832C877.053 64.7887 878.631 66.4162 880.604 67.6655C882.577 68.882 885.059 69.4902 888.051 69.4902C891.339 69.4902 894.035 68.6025 896.139 66.8271C898.243 65.0189 899.788 62.6353 900.774 59.6763C901.794 56.6844 902.303 53.4295 902.303 49.9116ZM945.258 76.9863C940.293 76.9863 935.97 75.8849 932.288 73.6821C928.638 71.4793 925.794 68.4382 923.756 64.5586C921.75 60.6462 920.748 56.1912 920.748 51.1938V49.1226C920.748 43.3032 921.849 38.3551 924.052 34.2783C926.287 30.1686 929.181 27.0452 932.731 24.9082C936.315 22.7383 940.096 21.6533 944.074 21.6533C949.17 21.6533 953.329 22.804 956.551 25.1055C959.806 27.374 962.19 30.481 963.702 34.4263C965.247 38.3387 966.02 42.7936 966.02 47.791V51.8843H926.172V44.4375H956.896V43.7471C956.765 41.3799 956.272 39.0785 955.417 36.8428C954.595 34.6071 953.28 32.766 951.472 31.3193C949.663 29.8727 947.198 29.1494 944.074 29.1494C941.312 29.1494 938.863 29.922 936.726 31.4673C934.589 33.0125 932.912 35.2811 931.696 38.2729C930.512 41.2319 929.92 44.8485 929.92 49.1226V51.1938C929.92 54.5474 930.545 57.6214 931.794 60.416C933.044 63.1777 934.852 65.397 937.219 67.0737C939.586 68.7176 942.43 69.5396 945.751 69.5396C948.973 69.5396 951.702 68.882 953.938 67.5669C956.173 66.2518 958.129 64.4928 959.806 62.29L965.33 66.6792C963.62 69.3094 961.171 71.693 957.981 73.8301C954.792 75.9342 950.551 76.9863 945.258 76.9863ZM985.796 31.0234V76H976.672V22.6396H985.549L985.796 31.0234ZM1002.46 22.3438L1002.42 30.8262C1001.66 30.6618 1000.94 30.5632 1000.25 30.5303C999.588 30.4645 998.832 30.4316 997.977 30.4316C995.15 30.4316 992.782 31.007 990.875 32.1577C988.969 33.3084 987.473 34.8866 986.388 36.8921C985.336 38.8647 984.678 41.1497 984.415 43.7471L981.851 45.2266C981.851 40.9525 982.426 37.04 983.577 33.4893C984.727 29.9056 986.519 27.0452 988.952 24.9082C991.418 22.7383 994.574 21.6533 998.421 21.6533C999.078 21.6533 999.835 21.7355 1000.69 21.8999C1001.54 22.0314 1002.14 22.1794 1002.46 22.3438ZM1020.81 22.6396V76H1011.64V22.6396H1020.81ZM1010.95 8.48584C1010.95 7.00635 1011.39 5.757 1012.28 4.73779C1013.2 3.71859 1014.55 3.20898 1016.32 3.20898C1018.07 3.20898 1019.4 3.71859 1020.32 4.73779C1021.27 5.757 1021.75 7.00635 1021.75 8.48584C1021.75 9.89958 1021.27 11.116 1020.32 12.1353C1019.4 13.1216 1018.07 13.6147 1016.32 13.6147C1014.55 13.6147 1013.2 13.1216 1012.28 12.1353C1011.39 11.116 1010.95 9.89958 1010.95 8.48584ZM1044.53 33.2427V76H1035.36V22.6396H1044.04L1044.53 33.2427ZM1042.66 47.2979L1038.42 47.1499C1038.45 42.2511 1039.27 37.8949 1040.88 34.0811C1042.53 30.2344 1044.94 27.2096 1048.13 25.0068C1051.32 22.7712 1055.3 21.6533 1060.07 21.6533C1065.06 21.6533 1069.19 23.1164 1072.44 26.0425C1075.7 28.9686 1077.33 33.7687 1077.33 40.4429V76H1068.2V40.8867C1068.2 38.0921 1067.73 35.8564 1066.77 34.1797C1065.85 32.5029 1064.54 31.2865 1062.83 30.5303C1061.12 29.7412 1059.11 29.3467 1056.81 29.3467C1054.12 29.3467 1051.86 29.8234 1050.06 30.7769C1048.25 31.7303 1046.8 33.0454 1045.72 34.7222C1044.63 36.3989 1043.84 38.3223 1043.35 40.4922C1042.89 42.6292 1042.66 44.8978 1042.66 47.2979ZM1077.23 42.2676L1071.11 44.1416C1071.18 40.2292 1072.02 36.5633 1073.63 33.144C1075.27 29.7248 1077.66 26.9631 1080.78 24.8589C1083.94 22.7218 1087.78 21.6533 1092.32 21.6533C1096.13 21.6533 1099.37 22.3273 1102.03 23.6753C1104.7 25.0233 1106.72 27.111 1108.1 29.9385C1109.51 32.766 1110.22 36.4318 1110.22 40.936V76H1101.05V40.8374C1101.05 37.8455 1100.57 35.5277 1099.62 33.8838C1098.7 32.207 1097.38 31.0399 1095.67 30.3823C1094 29.6919 1091.99 29.3467 1089.66 29.3467C1087.65 29.3467 1085.88 29.6919 1084.33 30.3823C1082.78 31.0728 1081.49 32.0262 1080.43 33.2427C1079.38 34.4263 1078.58 35.7907 1078.02 37.3359C1077.49 38.8812 1077.23 40.5251 1077.23 42.2676ZM1146.17 76.9863C1141.21 76.9863 1136.88 75.8849 1133.2 73.6821C1129.55 71.4793 1126.71 68.4382 1124.67 64.5586C1122.67 60.6462 1121.66 56.1912 1121.66 51.1938V49.1226C1121.66 43.3032 1122.76 38.3551 1124.97 34.2783C1127.2 30.1686 1130.1 27.0452 1133.65 24.9082C1137.23 22.7383 1141.01 21.6533 1144.99 21.6533C1150.09 21.6533 1154.24 22.804 1157.47 25.1055C1160.72 27.374 1163.1 30.481 1164.62 34.4263C1166.16 38.3387 1166.94 42.7936 1166.94 47.791V51.8843H1127.09V44.4375H1157.81V43.7471C1157.68 41.3799 1157.19 39.0785 1156.33 36.8428C1155.51 34.6071 1154.19 32.766 1152.39 31.3193C1150.58 29.8727 1148.11 29.1494 1144.99 29.1494C1142.23 29.1494 1139.78 29.922 1137.64 31.4673C1135.5 33.0125 1133.83 35.2811 1132.61 38.2729C1131.43 41.2319 1130.84 44.8485 1130.84 49.1226V51.1938C1130.84 54.5474 1131.46 57.6214 1132.71 60.416C1133.96 63.1777 1135.77 65.397 1138.13 67.0737C1140.5 68.7176 1143.35 69.5396 1146.67 69.5396C1149.89 69.5396 1152.62 68.882 1154.85 67.5669C1157.09 66.2518 1159.04 64.4928 1160.72 62.29L1166.24 66.6792C1164.53 69.3094 1162.09 71.693 1158.9 73.8301C1155.71 75.9342 1151.47 76.9863 1146.17 76.9863ZM1186.71 34.0317V76H1177.59V22.6396H1186.22L1186.71 34.0317ZM1184.54 47.2979L1180.74 47.1499C1180.81 42.2511 1181.75 37.8949 1183.55 34.0811C1185.36 30.2344 1187.88 27.2096 1191.1 25.0068C1194.35 22.7712 1198.14 21.6533 1202.44 21.6533C1205.96 21.6533 1208.99 22.2944 1211.52 23.5767C1214.08 24.8589 1216.05 26.9302 1217.44 29.7905C1218.85 32.618 1219.56 36.366 1219.56 41.0347V76H1210.38V40.936C1210.38 38.1414 1209.97 35.9058 1209.15 34.229C1208.33 32.5194 1207.13 31.2865 1205.55 30.5303C1203.97 29.7412 1202.03 29.3467 1199.73 29.3467C1197.46 29.3467 1195.39 29.8234 1193.52 30.7769C1191.68 31.7303 1190.08 33.0454 1188.73 34.7222C1187.42 36.3989 1186.38 38.3223 1185.63 40.4922C1184.9 42.6292 1184.54 44.8978 1184.54 47.2979ZM1255.75 22.6396V29.6426H1226.9V22.6396H1255.75ZM1236.67 9.66943H1245.79V62.7832C1245.79 64.5915 1246.07 65.9559 1246.63 66.8765C1247.19 67.797 1247.91 68.4053 1248.8 68.7012C1249.69 68.9971 1250.64 69.145 1251.66 69.145C1252.42 69.145 1253.21 69.0793 1254.03 68.9478C1254.88 68.7834 1255.52 68.6519 1255.95 68.5532L1256 76C1255.28 76.2301 1254.32 76.4438 1253.14 76.6411C1251.99 76.8713 1250.59 76.9863 1248.95 76.9863C1246.71 76.9863 1244.66 76.5425 1242.78 75.6548C1240.91 74.7671 1239.41 73.2876 1238.3 71.2163C1237.21 69.1121 1236.67 66.2847 1236.67 62.7339V9.66943ZM1297.92 66.8765V39.4072C1297.92 36.251 1296.97 33.7358 1295.06 31.8618C1293.19 29.9549 1290.39 29.0015 1286.68 29.0015C1284.37 29.0015 1282.35 29.396 1280.61 30.1851C1278.9 30.9741 1277.55 32.0098 1276.57 33.292C1275.61 34.5742 1275.14 35.9551 1275.14 37.4346H1266.01C1266.01 34.8701 1266.88 32.3879 1268.63 29.9878C1270.37 27.5549 1272.82 25.5658 1275.97 24.0205C1279.16 22.4424 1282.91 21.6533 1287.22 21.6533C1291.1 21.6533 1294.52 22.3109 1297.48 23.626C1300.47 24.9411 1302.8 26.9302 1304.48 29.5933C1306.19 32.2235 1307.04 35.5277 1307.04 39.5059V64.3613C1307.04 66.1367 1307.19 68.0272 1307.49 70.0327C1307.82 72.0382 1308.29 73.7643 1308.92 75.2109V76H1299.4C1298.94 74.9479 1298.58 73.5506 1298.31 71.8081C1298.05 70.0327 1297.92 68.3888 1297.92 66.8765ZM1299.5 43.6484L1299.6 50.0596H1290.37C1285.15 50.0596 1281.12 50.8815 1278.29 52.5254C1275.46 54.1364 1274.05 56.6022 1274.05 59.9229C1274.05 62.4544 1274.91 64.6079 1276.61 66.3833C1278.32 68.1258 1280.87 68.9971 1284.26 68.9971C1287.05 68.9971 1289.52 68.4053 1291.66 67.2217C1293.79 66.0381 1295.49 64.5915 1296.74 62.8818C1298.02 61.1722 1298.71 59.5119 1298.81 57.9009L1302.7 62.29C1302.47 63.6709 1301.85 65.1997 1300.83 66.8765C1299.81 68.5532 1298.45 70.1642 1296.74 71.7095C1295.06 73.2218 1293.05 74.4876 1290.72 75.5068C1288.42 76.4932 1285.82 76.9863 1282.93 76.9863C1279.31 76.9863 1276.14 76.2795 1273.41 74.8657C1270.71 73.452 1268.61 71.5615 1267.1 69.1943C1265.62 66.7943 1264.88 64.1147 1264.88 61.1558C1264.88 55.4351 1267.05 51.0952 1271.39 48.1362C1275.73 45.1444 1281.56 43.6484 1288.89 43.6484H1299.5ZM1331.31 0.25V76H1322.13V0.25H1331.31ZM33.4175 186.876V159.407C33.4175 156.251 32.464 153.736 30.5571 151.862C28.6831 149.955 25.8885 149.001 22.1733 149.001C19.8719 149.001 17.8499 149.396 16.1074 150.185C14.3978 150.974 13.0498 152.01 12.0635 153.292C11.11 154.574 10.6333 155.955 10.6333 157.435H1.50977C1.50977 154.87 2.38102 152.388 4.12354 149.988C5.86605 147.555 8.31543 145.566 11.4717 144.021C14.6608 142.442 18.4089 141.653 22.7158 141.653C26.5954 141.653 30.0146 142.311 32.9736 143.626C35.9655 144.941 38.2998 146.93 39.9766 149.593C41.6862 152.223 42.541 155.528 42.541 159.506V184.361C42.541 186.137 42.689 188.027 42.9849 190.033C43.3136 192.038 43.7904 193.764 44.415 195.211V196H34.897C34.4367 194.948 34.075 193.551 33.812 191.808C33.549 190.033 33.4175 188.389 33.4175 186.876ZM34.9956 163.648L35.0942 170.06H25.8721C20.6445 170.06 16.617 170.882 13.7896 172.525C10.9621 174.136 9.54834 176.602 9.54834 179.923C9.54834 182.454 10.4032 184.608 12.1128 186.383C13.8224 188.126 16.3704 188.997 19.7568 188.997C22.5514 188.997 25.0173 188.405 27.1543 187.222C29.2913 186.038 30.9845 184.591 32.2339 182.882C33.5161 181.172 34.2065 179.512 34.3052 177.901L38.2012 182.29C37.971 183.671 37.3464 185.2 36.3271 186.876C35.3079 188.553 33.9435 190.164 32.2339 191.709C30.5571 193.222 28.5516 194.488 26.2173 195.507C23.9159 196.493 21.3185 196.986 18.4253 196.986C14.8088 196.986 11.6361 196.279 8.90723 194.866C6.21126 193.452 4.1071 191.562 2.59473 189.194C1.11523 186.794 0.375488 184.115 0.375488 181.156C0.375488 175.435 2.54541 171.095 6.88525 168.136C11.2251 165.144 17.0609 163.648 24.3926 163.648H34.9956ZM66.0156 151.023V196H56.8921V142.64H65.769L66.0156 151.023ZM82.6846 142.344L82.6353 150.826C81.8791 150.662 81.1558 150.563 80.4653 150.53C79.8078 150.465 79.0516 150.432 78.1968 150.432C75.3693 150.432 73.0021 151.007 71.0952 152.158C69.1883 153.308 67.6924 154.887 66.6074 156.892C65.5553 158.865 64.8978 161.15 64.6348 163.747L62.0703 165.227C62.0703 160.952 62.6457 157.04 63.7964 153.489C64.9471 149.906 66.7389 147.045 69.1719 144.908C71.6377 142.738 74.7939 141.653 78.6406 141.653C79.2982 141.653 80.0544 141.736 80.9092 141.9C81.764 142.031 82.3558 142.179 82.6846 142.344ZM115.924 142.64V149.643H87.0737V142.64H115.924ZM96.8384 129.669H105.962V182.783C105.962 184.591 106.241 185.956 106.8 186.876C107.359 187.797 108.083 188.405 108.97 188.701C109.858 188.997 110.811 189.145 111.831 189.145C112.587 189.145 113.376 189.079 114.198 188.948C115.053 188.783 115.694 188.652 116.121 188.553L116.17 196C115.447 196.23 114.494 196.444 113.31 196.641C112.159 196.871 110.762 196.986 109.118 196.986C106.882 196.986 104.828 196.542 102.954 195.655C101.08 194.767 99.5837 193.288 98.4658 191.216C97.3809 189.112 96.8384 186.285 96.8384 182.734V129.669ZM157.695 181.846C157.695 180.531 157.399 179.315 156.807 178.197C156.248 177.046 155.081 176.01 153.306 175.09C151.563 174.136 148.933 173.314 145.415 172.624C141.47 171.802 138.05 170.75 135.157 169.468C132.297 168.186 130.078 166.558 128.5 164.585C126.954 162.613 126.182 160.163 126.182 157.237C126.182 154.41 126.987 151.829 128.598 149.495C130.242 147.127 132.543 145.237 135.502 143.823C138.494 142.377 141.979 141.653 145.958 141.653C150.232 141.653 153.881 142.41 156.906 143.922C159.931 145.434 162.248 147.456 163.859 149.988C165.47 152.486 166.276 155.265 166.276 158.322H157.152C157.152 156.119 156.182 154.048 154.243 152.108C152.336 150.136 149.574 149.149 145.958 149.149C143.426 149.149 141.371 149.544 139.793 150.333C138.248 151.089 137.113 152.059 136.39 153.243C135.7 154.426 135.354 155.676 135.354 156.991C135.354 158.306 135.683 159.44 136.341 160.394C136.998 161.347 138.198 162.202 139.941 162.958C141.716 163.714 144.281 164.47 147.634 165.227C152.007 166.213 155.607 167.396 158.435 168.777C161.262 170.158 163.366 171.851 164.747 173.857C166.128 175.862 166.818 178.295 166.818 181.156C166.818 184.279 165.964 187.041 164.254 189.441C162.544 191.808 160.144 193.666 157.054 195.014C153.963 196.329 150.347 196.986 146.204 196.986C141.503 196.986 137.524 196.148 134.27 194.471C131.015 192.794 128.549 190.625 126.872 187.961C125.195 185.298 124.357 182.487 124.357 179.528H133.53C133.661 182.027 134.385 184.016 135.7 185.496C137.015 186.942 138.626 187.978 140.533 188.603C142.44 189.194 144.33 189.49 146.204 189.49C148.703 189.49 150.791 189.161 152.467 188.504C154.177 187.846 155.476 186.942 156.363 185.792C157.251 184.641 157.695 183.326 157.695 181.846ZM244.093 142.64L255.781 162.07L267.617 142.64H278.319L260.861 168.975L278.861 196H268.308L255.978 175.978L243.649 196H233.046L250.997 168.975L233.589 142.64H244.093ZM356.235 153.243V196H347.062V142.64H355.742L356.235 153.243ZM354.361 167.298L350.119 167.15C350.152 162.251 350.974 157.895 352.585 154.081C354.229 150.234 356.646 147.21 359.835 145.007C363.024 142.771 367.002 141.653 371.769 141.653C376.767 141.653 380.893 143.116 384.148 146.042C387.403 148.969 389.03 153.769 389.03 160.443V196H379.907V160.887C379.907 158.092 379.43 155.856 378.476 154.18C377.556 152.503 376.241 151.286 374.531 150.53C372.821 149.741 370.816 149.347 368.514 149.347C365.819 149.347 363.566 149.823 361.758 150.777C359.95 151.73 358.503 153.045 357.418 154.722C356.333 156.399 355.544 158.322 355.051 160.492C354.591 162.629 354.361 164.898 354.361 167.298ZM388.931 162.268L382.816 164.142C382.882 160.229 383.72 156.563 385.331 153.144C386.975 149.725 389.359 146.963 392.482 144.859C395.638 142.722 399.485 141.653 404.022 141.653C407.836 141.653 411.075 142.327 413.738 143.675C416.401 145.023 418.423 147.111 419.804 149.938C421.217 152.766 421.924 156.432 421.924 160.936V196H412.751V160.837C412.751 157.846 412.275 155.528 411.321 153.884C410.401 152.207 409.085 151.04 407.376 150.382C405.699 149.692 403.694 149.347 401.359 149.347C399.354 149.347 397.578 149.692 396.033 150.382C394.488 151.073 393.189 152.026 392.137 153.243C391.085 154.426 390.279 155.791 389.721 157.336C389.194 158.881 388.931 160.525 388.931 162.268ZM468.38 183.671V142.64H477.553V196H468.824L468.38 183.671ZM470.106 172.427L473.904 172.328C473.904 177.062 473.23 181.287 471.882 185.002C470.534 188.718 468.331 191.644 465.273 193.781C462.216 195.918 458.139 196.986 453.043 196.986C447.815 196.986 443.59 195.441 440.368 192.351C437.146 189.26 435.535 184.164 435.535 177.062V142.64H444.659V177.161C444.659 180.35 445.119 182.833 446.04 184.608C446.993 186.35 448.226 187.567 449.739 188.257C451.251 188.915 452.829 189.244 454.473 189.244C458.353 189.244 461.427 188.504 463.695 187.024C465.964 185.512 467.591 183.49 468.577 180.958C469.597 178.394 470.106 175.55 470.106 172.427ZM522.53 181.846C522.53 180.531 522.234 179.315 521.642 178.197C521.083 177.046 519.916 176.01 518.14 175.09C516.398 174.136 513.768 173.314 510.25 172.624C506.305 171.802 502.885 170.75 499.992 169.468C497.132 168.186 494.912 166.558 493.334 164.585C491.789 162.613 491.016 160.163 491.016 157.237C491.016 154.41 491.822 151.829 493.433 149.495C495.077 147.127 497.378 145.237 500.337 143.823C503.329 142.377 506.814 141.653 510.792 141.653C515.066 141.653 518.716 142.41 521.741 143.922C524.765 145.434 527.083 147.456 528.694 149.988C530.305 152.486 531.111 155.265 531.111 158.322H521.987C521.987 156.119 521.017 154.048 519.077 152.108C517.171 150.136 514.409 149.149 510.792 149.149C508.261 149.149 506.206 149.544 504.628 150.333C503.082 151.089 501.948 152.059 501.225 153.243C500.534 154.426 500.189 155.676 500.189 156.991C500.189 158.306 500.518 159.44 501.176 160.394C501.833 161.347 503.033 162.202 504.776 162.958C506.551 163.714 509.116 164.47 512.469 165.227C516.842 166.213 520.442 167.396 523.269 168.777C526.097 170.158 528.201 171.851 529.582 173.857C530.963 175.862 531.653 178.295 531.653 181.156C531.653 184.279 530.798 187.041 529.089 189.441C527.379 191.808 524.979 193.666 521.888 195.014C518.798 196.329 515.181 196.986 511.039 196.986C506.337 196.986 502.359 196.148 499.104 194.471C495.849 192.794 493.384 190.625 491.707 187.961C490.03 185.298 489.192 182.487 489.192 179.528H498.365C498.496 182.027 499.219 184.016 500.534 185.496C501.85 186.942 503.461 187.978 505.367 188.603C507.274 189.194 509.165 189.49 511.039 189.49C513.538 189.49 515.625 189.161 517.302 188.504C519.012 187.846 520.31 186.942 521.198 185.792C522.086 184.641 522.53 183.326 522.53 181.846ZM553.55 142.64V196H544.377V142.64H553.55ZM543.686 128.486C543.686 127.006 544.13 125.757 545.018 124.738C545.938 123.719 547.286 123.209 549.062 123.209C550.804 123.209 552.136 123.719 553.056 124.738C554.01 125.757 554.487 127.006 554.487 128.486C554.487 129.9 554.01 131.116 553.056 132.135C552.136 133.122 550.804 133.615 549.062 133.615C547.286 133.615 545.938 133.122 545.018 132.135C544.13 131.116 543.686 129.9 543.686 128.486ZM589.551 189.49C591.721 189.49 593.726 189.046 595.567 188.159C597.408 187.271 598.921 186.055 600.104 184.509C601.288 182.931 601.962 181.139 602.126 179.134H610.806C610.642 182.29 609.573 185.233 607.6 187.961C605.661 190.657 603.113 192.844 599.956 194.521C596.8 196.164 593.332 196.986 589.551 196.986C584.192 196.986 579.753 195.77 576.235 193.337C572.75 190.871 570.136 187.616 568.394 183.572C566.684 179.528 565.829 175.123 565.829 170.355V168.284C565.829 163.517 566.684 159.111 568.394 155.067C570.136 151.023 572.767 147.785 576.284 145.352C579.802 142.886 584.224 141.653 589.551 141.653C593.726 141.653 597.375 142.508 600.499 144.218C603.622 145.895 606.072 148.196 607.847 151.122C609.655 154.015 610.642 157.303 610.806 160.985H602.126C601.962 158.783 601.337 156.793 600.252 155.018C599.2 153.243 597.754 151.829 595.912 150.777C594.104 149.692 591.984 149.149 589.551 149.149C585.803 149.149 582.86 150.103 580.723 152.01C578.619 153.917 577.123 156.333 576.235 159.259C575.38 162.185 574.953 165.194 574.953 168.284V170.355C574.953 173.479 575.38 176.504 576.235 179.43C577.09 182.356 578.569 184.772 580.674 186.679C582.811 188.553 585.77 189.49 589.551 189.49ZM693.801 196H684.678V137.018C684.678 131.264 686.223 126.858 689.314 123.801C692.437 120.743 696.728 119.214 702.185 119.214C703.237 119.214 704.289 119.28 705.341 119.412C706.426 119.543 707.479 119.74 708.498 120.003L708.005 127.45C707.314 127.286 706.525 127.171 705.637 127.105C704.783 127.039 703.928 127.006 703.073 127.006C700.147 127.006 697.862 127.878 696.218 129.62C694.607 131.33 693.801 133.796 693.801 137.018V196ZM705.144 142.64V149.643H676.245V142.64H705.144ZM736.263 196.986C731.298 196.986 726.975 195.885 723.293 193.682C719.643 191.479 716.799 188.438 714.761 184.559C712.755 180.646 711.753 176.191 711.753 171.194V169.123C711.753 163.303 712.854 158.355 715.057 154.278C717.293 150.169 720.186 147.045 723.737 144.908C727.32 142.738 731.101 141.653 735.079 141.653C740.175 141.653 744.334 142.804 747.556 145.105C750.811 147.374 753.195 150.481 754.707 154.426C756.252 158.339 757.025 162.794 757.025 167.791V171.884H717.177V164.438H747.902V163.747C747.77 161.38 747.277 159.078 746.422 156.843C745.6 154.607 744.285 152.766 742.477 151.319C740.668 149.873 738.203 149.149 735.079 149.149C732.318 149.149 729.868 149.922 727.731 151.467C725.594 153.013 723.917 155.281 722.701 158.273C721.517 161.232 720.925 164.848 720.925 169.123V171.194C720.925 174.547 721.55 177.621 722.799 180.416C724.049 183.178 725.857 185.397 728.224 187.074C730.591 188.718 733.435 189.54 736.756 189.54C739.978 189.54 742.707 188.882 744.943 187.567C747.178 186.252 749.134 184.493 750.811 182.29L756.335 186.679C754.625 189.309 752.176 191.693 748.987 193.83C745.797 195.934 741.556 196.986 736.263 196.986ZM798.747 181.846C798.747 180.531 798.451 179.315 797.859 178.197C797.3 177.046 796.133 176.01 794.358 175.09C792.615 174.136 789.985 173.314 786.467 172.624C782.522 171.802 779.102 170.75 776.209 169.468C773.349 168.186 771.13 166.558 769.551 164.585C768.006 162.613 767.234 160.163 767.234 157.237C767.234 154.41 768.039 151.829 769.65 149.495C771.294 147.127 773.595 145.237 776.554 143.823C779.546 142.377 783.031 141.653 787.009 141.653C791.284 141.653 794.933 142.41 797.958 143.922C800.982 145.434 803.3 147.456 804.911 149.988C806.522 152.486 807.328 155.265 807.328 158.322H798.204C798.204 156.119 797.234 154.048 795.295 152.108C793.388 150.136 790.626 149.149 787.009 149.149C784.478 149.149 782.423 149.544 780.845 150.333C779.3 151.089 778.165 152.059 777.442 153.243C776.752 154.426 776.406 155.676 776.406 156.991C776.406 158.306 776.735 159.44 777.393 160.394C778.05 161.347 779.25 162.202 780.993 162.958C782.768 163.714 785.333 164.47 788.686 165.227C793.059 166.213 796.659 167.396 799.487 168.777C802.314 170.158 804.418 171.851 805.799 173.857C807.18 175.862 807.87 178.295 807.87 181.156C807.87 184.279 807.015 187.041 805.306 189.441C803.596 191.808 801.196 193.666 798.106 195.014C795.015 196.329 791.399 196.986 787.256 196.986C782.555 196.986 778.576 196.148 775.321 194.471C772.067 192.794 769.601 190.625 767.924 187.961C766.247 185.298 765.409 182.487 765.409 179.528H774.582C774.713 182.027 775.437 184.016 776.752 185.496C778.067 186.942 779.678 187.978 781.585 188.603C783.492 189.194 785.382 189.49 787.256 189.49C789.755 189.49 791.842 189.161 793.519 188.504C795.229 187.846 796.528 186.942 797.415 185.792C798.303 184.641 798.747 183.326 798.747 181.846ZM842.195 142.64V149.643H813.344V142.64H842.195ZM823.109 129.669H832.233V182.783C832.233 184.591 832.512 185.956 833.071 186.876C833.63 187.797 834.353 188.405 835.241 188.701C836.129 188.997 837.082 189.145 838.101 189.145C838.857 189.145 839.647 189.079 840.468 188.948C841.323 188.783 841.964 188.652 842.392 188.553L842.441 196C841.718 196.23 840.764 196.444 839.581 196.641C838.43 196.871 837.033 196.986 835.389 196.986C833.153 196.986 831.098 196.542 829.224 195.655C827.35 194.767 825.854 193.288 824.737 191.216C823.652 189.112 823.109 186.285 823.109 182.734V129.669ZM862.809 142.64V196H853.636V142.64H862.809ZM852.945 128.486C852.945 127.006 853.389 125.757 854.277 124.738C855.198 123.719 856.546 123.209 858.321 123.209C860.063 123.209 861.395 123.719 862.316 124.738C863.269 125.757 863.746 127.006 863.746 128.486C863.746 129.9 863.269 131.116 862.316 132.135C861.395 133.122 860.063 133.615 858.321 133.615C856.546 133.615 855.198 133.122 854.277 132.135C853.389 131.116 852.945 129.9 852.945 128.486ZM893.681 187.764L908.279 142.64H917.599L898.415 196H892.3L893.681 187.764ZM881.5 142.64L896.541 188.011L897.577 196H891.462L872.13 142.64H881.5ZM957.052 186.876V159.407C957.052 156.251 956.099 153.736 954.192 151.862C952.318 149.955 949.523 149.001 945.808 149.001C943.507 149.001 941.485 149.396 939.742 150.185C938.033 150.974 936.685 152.01 935.698 153.292C934.745 154.574 934.268 155.955 934.268 157.435H925.145C925.145 154.87 926.016 152.388 927.758 149.988C929.501 147.555 931.95 145.566 935.107 144.021C938.296 142.442 942.044 141.653 946.351 141.653C950.23 141.653 953.65 142.311 956.609 143.626C959.6 144.941 961.935 146.93 963.612 149.593C965.321 152.223 966.176 155.528 966.176 159.506V184.361C966.176 186.137 966.324 188.027 966.62 190.033C966.949 192.038 967.425 193.764 968.05 195.211V196H958.532C958.072 194.948 957.71 193.551 957.447 191.808C957.184 190.033 957.052 188.389 957.052 186.876ZM958.631 163.648L958.729 170.06H949.507C944.279 170.06 940.252 170.882 937.424 172.525C934.597 174.136 933.183 176.602 933.183 179.923C933.183 182.454 934.038 184.608 935.748 186.383C937.457 188.126 940.005 188.997 943.392 188.997C946.186 188.997 948.652 188.405 950.789 187.222C952.926 186.038 954.619 184.591 955.869 182.882C957.151 181.172 957.841 179.512 957.94 177.901L961.836 182.29C961.606 183.671 960.981 185.2 959.962 186.876C958.943 188.553 957.578 190.164 955.869 191.709C954.192 193.222 952.187 194.488 949.852 195.507C947.551 196.493 944.953 196.986 942.06 196.986C938.444 196.986 935.271 196.279 932.542 194.866C929.846 193.452 927.742 191.562 926.23 189.194C924.75 186.794 924.01 184.115 924.01 181.156C924.01 175.435 926.18 171.095 930.52 168.136C934.86 165.144 940.696 163.648 948.028 163.648H958.631ZM990.44 120.25V196H981.267V120.25H990.44ZM1074.13 142.64V196H1064.95V142.64H1074.13ZM1064.26 128.486C1064.26 127.006 1064.71 125.757 1065.59 124.738C1066.51 123.719 1067.86 123.209 1069.64 123.209C1071.38 123.209 1072.71 123.719 1073.63 124.738C1074.59 125.757 1075.06 127.006 1075.06 128.486C1075.06 129.9 1074.59 131.116 1073.63 132.135C1072.71 133.122 1071.38 133.615 1069.64 133.615C1067.86 133.615 1066.51 133.122 1065.59 132.135C1064.71 131.116 1064.26 129.9 1064.26 128.486ZM1097.9 154.032V196H1088.77V142.64H1097.4L1097.9 154.032ZM1095.73 167.298L1091.93 167.15C1091.99 162.251 1092.93 157.895 1094.74 154.081C1096.55 150.234 1099.06 147.21 1102.29 145.007C1105.54 142.771 1109.32 141.653 1113.63 141.653C1117.15 141.653 1120.17 142.294 1122.7 143.577C1125.27 144.859 1127.24 146.93 1128.62 149.791C1130.03 152.618 1130.74 156.366 1130.74 161.035V196H1121.57V160.936C1121.57 158.141 1121.16 155.906 1120.34 154.229C1119.51 152.519 1118.31 151.286 1116.73 150.53C1115.16 149.741 1113.22 149.347 1110.92 149.347C1108.65 149.347 1106.58 149.823 1104.7 150.777C1102.86 151.73 1101.27 153.045 1099.92 154.722C1098.6 156.399 1097.57 158.322 1096.81 160.492C1096.09 162.629 1095.73 164.898 1095.73 167.298ZM1226.07 142.64V149.643H1197.22V142.64H1226.07ZM1206.98 129.669H1216.1V182.783C1216.1 184.591 1216.38 185.956 1216.94 186.876C1217.5 187.797 1218.22 188.405 1219.11 188.701C1220 188.997 1220.95 189.145 1221.97 189.145C1222.73 189.145 1223.52 189.079 1224.34 188.948C1225.19 188.783 1225.84 188.652 1226.26 188.553L1226.31 196C1225.59 196.23 1224.64 196.444 1223.45 196.641C1222.3 196.871 1220.9 196.986 1219.26 196.986C1217.02 196.986 1214.97 196.542 1213.1 195.655C1211.22 194.767 1209.73 193.288 1208.61 191.216C1207.52 189.112 1206.98 186.285 1206.98 182.734V129.669ZM1245.89 120.25V196H1236.77V120.25H1245.89ZM1243.72 167.298L1239.92 167.15C1239.99 162.251 1240.93 157.895 1242.73 154.081C1244.54 150.234 1247.06 147.21 1250.28 145.007C1253.53 142.771 1257.32 141.653 1261.62 141.653C1265.14 141.653 1268.17 142.294 1270.7 143.577C1273.26 144.859 1275.23 146.93 1276.61 149.791C1278.03 152.618 1278.74 156.366 1278.74 161.035V196H1269.56V160.936C1269.56 158.141 1269.15 155.906 1268.33 154.229C1267.51 152.519 1266.31 151.286 1264.73 150.53C1263.15 149.741 1261.21 149.347 1258.91 149.347C1256.64 149.347 1254.57 149.823 1252.7 150.777C1250.86 151.73 1249.26 153.045 1247.91 154.722C1246.6 156.399 1245.56 158.322 1244.81 160.492C1244.08 162.629 1243.72 164.898 1243.72 167.298ZM1314.54 196.986C1309.57 196.986 1305.25 195.885 1301.57 193.682C1297.92 191.479 1295.08 188.438 1293.04 184.559C1291.03 180.646 1290.03 176.191 1290.03 171.194V169.123C1290.03 163.303 1291.13 158.355 1293.33 154.278C1295.57 150.169 1298.46 147.045 1302.01 144.908C1305.6 142.738 1309.38 141.653 1313.36 141.653C1318.45 141.653 1322.61 142.804 1325.83 145.105C1329.09 147.374 1331.47 150.481 1332.98 154.426C1334.53 158.339 1335.3 162.794 1335.3 167.791V171.884H1295.45V164.438H1326.18V163.747C1326.05 161.38 1325.55 159.078 1324.7 156.843C1323.88 154.607 1322.56 152.766 1320.75 151.319C1318.94 149.873 1316.48 149.149 1313.36 149.149C1310.59 149.149 1308.14 149.922 1306.01 151.467C1303.87 153.013 1302.19 155.281 1300.98 158.273C1299.79 161.232 1299.2 164.848 1299.2 169.123V171.194C1299.2 174.547 1299.83 177.621 1301.08 180.416C1302.33 183.178 1304.13 185.397 1306.5 187.074C1308.87 188.718 1311.71 189.54 1315.03 189.54C1318.25 189.54 1320.98 188.882 1323.22 187.567C1325.45 186.252 1327.41 184.493 1329.09 182.29L1334.61 186.679C1332.9 189.309 1330.45 191.693 1327.26 193.83C1324.07 195.934 1319.83 196.986 1314.54 196.986ZM11.0278 273.243V316H1.85498V262.64H10.5347L11.0278 273.243ZM9.15381 287.298L4.9126 287.15C4.94548 282.251 5.76742 277.895 7.37842 274.081C9.0223 270.234 11.4388 267.21 14.6279 265.007C17.8171 262.771 21.7952 261.653 26.5625 261.653C31.5599 261.653 35.686 263.116 38.9409 266.042C42.1958 268.969 43.8232 273.769 43.8232 280.443V316H34.6997V280.887C34.6997 278.092 34.223 275.856 33.2695 274.18C32.349 272.503 31.0339 271.286 29.3242 270.53C27.6146 269.741 25.609 269.347 23.3076 269.347C20.6117 269.347 18.3595 269.823 16.5513 270.777C14.743 271.73 13.2964 273.045 12.2114 274.722C11.1265 276.399 10.3374 278.322 9.84424 280.492C9.38395 282.629 9.15381 284.898 9.15381 287.298ZM43.7246 282.268L37.6094 284.142C37.6751 280.229 38.5135 276.563 40.1245 273.144C41.7684 269.725 44.152 266.963 47.2754 264.859C50.4316 262.722 54.2783 261.653 58.8154 261.653C62.6292 261.653 65.8677 262.327 68.5308 263.675C71.1938 265.023 73.2158 267.111 74.5967 269.938C76.0104 272.766 76.7173 276.432 76.7173 280.936V316H67.5444V280.837C67.5444 277.846 67.0677 275.528 66.1143 273.884C65.1937 272.207 63.8786 271.04 62.1689 270.382C60.4922 269.692 58.4867 269.347 56.1523 269.347C54.1468 269.347 52.3714 269.692 50.8262 270.382C49.2809 271.073 47.9823 272.026 46.9302 273.243C45.8781 274.426 45.0726 275.791 44.5137 277.336C43.9876 278.881 43.7246 280.525 43.7246 282.268ZM100.438 262.64V316H91.2656V262.64H100.438ZM90.5752 248.486C90.5752 247.006 91.019 245.757 91.9067 244.738C92.8273 243.719 94.1753 243.209 95.9507 243.209C97.6932 243.209 99.0247 243.719 99.9453 244.738C100.899 245.757 101.375 247.006 101.375 248.486C101.375 249.9 100.899 251.116 99.9453 252.135C99.0247 253.122 97.6932 253.615 95.9507 253.615C94.1753 253.615 92.8273 253.122 91.9067 252.135C91.019 251.116 90.5752 249.9 90.5752 248.486ZM148.719 305.644V240.25H157.892V316H149.508L148.719 305.644ZM112.817 289.912V288.876C112.817 283.451 113.688 278.7 115.431 274.624C117.206 270.514 119.672 267.325 122.828 265.056C125.984 262.788 129.683 261.653 133.924 261.653C138.396 261.653 142.127 262.689 145.119 264.76C148.111 266.799 150.445 269.725 152.122 273.539C153.832 277.319 154.933 281.84 155.426 287.101V291.638C154.933 296.832 153.848 301.337 152.171 305.15C150.495 308.931 148.144 311.857 145.119 313.929C142.094 315.967 138.33 316.986 133.826 316.986C129.65 316.986 125.984 315.819 122.828 313.485C119.672 311.118 117.206 307.896 115.431 303.819C113.688 299.742 112.817 295.106 112.817 289.912ZM121.99 288.876V289.912C121.99 293.43 122.483 296.668 123.469 299.627C124.456 302.553 125.984 304.887 128.056 306.63C130.127 308.372 132.806 309.244 136.094 309.244C139.119 309.244 141.601 308.603 143.541 307.32C145.514 306.038 147.092 304.345 148.275 302.241C149.459 300.137 150.38 297.852 151.037 295.386V283.5C150.643 281.692 150.067 279.95 149.311 278.273C148.588 276.563 147.634 275.051 146.451 273.736C145.3 272.388 143.87 271.319 142.16 270.53C140.483 269.741 138.494 269.347 136.193 269.347C132.872 269.347 130.16 270.234 128.056 272.01C125.984 273.785 124.456 276.152 123.469 279.111C122.483 282.07 121.99 285.325 121.99 288.876ZM203.165 301.846C203.165 300.531 202.869 299.315 202.277 298.197C201.718 297.046 200.551 296.01 198.775 295.09C197.033 294.136 194.403 293.314 190.885 292.624C186.939 291.802 183.52 290.75 180.627 289.468C177.767 288.186 175.547 286.558 173.969 284.585C172.424 282.613 171.651 280.163 171.651 277.237C171.651 274.41 172.457 271.829 174.068 269.495C175.712 267.127 178.013 265.237 180.972 263.823C183.964 262.377 187.449 261.653 191.427 261.653C195.701 261.653 199.351 262.41 202.375 263.922C205.4 265.434 207.718 267.456 209.329 269.988C210.94 272.486 211.746 275.265 211.746 278.322H202.622C202.622 276.119 201.652 274.048 199.712 272.108C197.806 270.136 195.044 269.149 191.427 269.149C188.896 269.149 186.841 269.544 185.263 270.333C183.717 271.089 182.583 272.059 181.86 273.243C181.169 274.426 180.824 275.676 180.824 276.991C180.824 278.306 181.153 279.44 181.811 280.394C182.468 281.347 183.668 282.202 185.411 282.958C187.186 283.714 189.75 284.47 193.104 285.227C197.477 286.213 201.077 287.396 203.904 288.777C206.732 290.158 208.836 291.851 210.217 293.857C211.598 295.862 212.288 298.295 212.288 301.156C212.288 304.279 211.433 307.041 209.724 309.441C208.014 311.808 205.614 313.666 202.523 315.014C199.433 316.329 195.816 316.986 191.674 316.986C186.972 316.986 182.994 316.148 179.739 314.471C176.484 312.794 174.019 310.625 172.342 307.961C170.665 305.298 169.827 302.487 169.827 299.528H179C179.131 302.027 179.854 304.016 181.169 305.496C182.485 306.942 184.096 307.978 186.002 308.603C187.909 309.194 189.8 309.49 191.674 309.49C194.173 309.49 196.26 309.161 197.937 308.504C199.647 307.846 200.945 306.942 201.833 305.792C202.721 304.641 203.165 303.326 203.165 301.846ZM246.612 262.64V269.643H217.762V262.64H246.612ZM227.527 249.669H236.65V302.783C236.65 304.591 236.93 305.956 237.489 306.876C238.048 307.797 238.771 308.405 239.659 308.701C240.546 308.997 241.5 309.145 242.519 309.145C243.275 309.145 244.064 309.079 244.886 308.948C245.741 308.783 246.382 308.652 246.81 308.553L246.859 316C246.136 316.23 245.182 316.444 243.999 316.641C242.848 316.871 241.451 316.986 239.807 316.986C237.571 316.986 235.516 316.542 233.642 315.655C231.768 314.767 230.272 313.288 229.154 311.216C228.069 309.112 227.527 306.285 227.527 302.734V249.669ZM282.021 289.912V288.777C282.021 283.616 283.008 278.996 284.98 274.919C286.953 270.843 289.748 267.621 293.364 265.253C296.981 262.853 301.271 261.653 306.236 261.653C311.266 261.653 315.59 262.853 319.206 265.253C322.855 267.621 325.667 270.843 327.639 274.919C329.612 278.996 330.598 283.616 330.598 288.777V289.912C330.598 295.041 329.612 299.66 327.639 303.77C325.667 307.846 322.872 311.068 319.255 313.436C315.639 315.803 311.332 316.986 306.334 316.986C301.337 316.986 297.014 315.803 293.364 313.436C289.748 311.068 286.953 307.846 284.98 303.77C283.008 299.66 282.021 295.041 282.021 289.912ZM291.145 288.777V289.912C291.145 293.43 291.704 296.684 292.822 299.676C293.94 302.635 295.616 305.019 297.852 306.827C300.121 308.603 302.948 309.49 306.334 309.49C309.688 309.49 312.483 308.603 314.718 306.827C316.954 305.019 318.631 302.635 319.749 299.676C320.866 296.684 321.425 293.43 321.425 289.912V288.777C321.425 285.292 320.85 282.07 319.699 279.111C318.581 276.119 316.905 273.719 314.669 271.911C312.433 270.07 309.622 269.149 306.236 269.149C302.882 269.149 300.088 270.07 297.852 271.911C295.616 273.719 293.94 276.119 292.822 279.111C291.704 282.07 291.145 285.292 291.145 288.777ZM355.651 316H346.527V257.018C346.527 251.264 348.073 246.858 351.163 243.801C354.286 240.743 358.577 239.214 364.035 239.214C365.087 239.214 366.139 239.28 367.191 239.412C368.276 239.543 369.328 239.74 370.347 240.003L369.854 247.45C369.164 247.286 368.375 247.171 367.487 247.105C366.632 247.039 365.777 247.006 364.922 247.006C361.996 247.006 359.711 247.878 358.067 249.62C356.456 251.33 355.651 253.796 355.651 257.018V316ZM366.994 262.64V269.643H338.094V262.64H366.994ZM426.617 262.64V269.643H397.767V262.64H426.617ZM407.532 249.669H416.655V302.783C416.655 304.591 416.935 305.956 417.494 306.876C418.053 307.797 418.776 308.405 419.664 308.701C420.551 308.997 421.505 309.145 422.524 309.145C423.28 309.145 424.069 309.079 424.891 308.948C425.746 308.783 426.387 308.652 426.814 308.553L426.864 316C426.14 316.23 425.187 316.444 424.003 316.641C422.853 316.871 421.455 316.986 419.812 316.986C417.576 316.986 415.521 316.542 413.647 315.655C411.773 314.767 410.277 313.288 409.159 311.216C408.074 309.112 407.532 306.285 407.532 302.734V249.669ZM446.442 240.25V316H437.319V240.25H446.442ZM444.272 287.298L440.475 287.15C440.541 282.251 441.478 277.895 443.286 274.081C445.094 270.234 447.61 267.21 450.832 265.007C454.086 262.771 457.867 261.653 462.174 261.653C465.692 261.653 468.717 262.294 471.249 263.577C473.813 264.859 475.786 266.93 477.167 269.791C478.58 272.618 479.287 276.366 479.287 281.035V316H470.114V280.936C470.114 278.141 469.703 275.906 468.881 274.229C468.059 272.519 466.859 271.286 465.281 270.53C463.703 269.741 461.763 269.347 459.462 269.347C457.193 269.347 455.122 269.823 453.248 270.777C451.407 271.73 449.812 273.045 448.464 274.722C447.149 276.399 446.114 278.322 445.357 280.492C444.634 282.629 444.272 284.898 444.272 287.298ZM515.091 316.986C510.126 316.986 505.803 315.885 502.121 313.682C498.471 311.479 495.627 308.438 493.589 304.559C491.583 300.646 490.581 296.191 490.581 291.194V289.123C490.581 283.303 491.682 278.355 493.885 274.278C496.12 270.169 499.014 267.045 502.564 264.908C506.148 262.738 509.929 261.653 513.907 261.653C519.003 261.653 523.162 262.804 526.384 265.105C529.639 267.374 532.023 270.481 533.535 274.426C535.08 278.339 535.853 282.794 535.853 287.791V291.884H496.005V284.438H526.729V283.747C526.598 281.38 526.105 279.078 525.25 276.843C524.428 274.607 523.113 272.766 521.305 271.319C519.496 269.873 517.031 269.149 513.907 269.149C511.146 269.149 508.696 269.922 506.559 271.467C504.422 273.013 502.745 275.281 501.529 278.273C500.345 281.232 499.753 284.848 499.753 289.123V291.194C499.753 294.547 500.378 297.621 501.627 300.416C502.877 303.178 504.685 305.397 507.052 307.074C509.419 308.718 512.263 309.54 515.584 309.54C518.806 309.54 521.535 308.882 523.771 307.567C526.006 306.252 527.962 304.493 529.639 302.29L535.163 306.679C533.453 309.309 531.004 311.693 527.814 313.83C524.625 315.934 520.384 316.986 515.091 316.986ZM613.28 297.852C613.28 295.616 612.803 293.709 611.85 292.131C610.896 290.553 609.187 289.123 606.721 287.84C604.255 286.558 600.753 285.259 596.216 283.944C591.482 282.563 587.372 280.936 583.887 279.062C580.402 277.188 577.706 274.936 575.799 272.306C573.892 269.643 572.939 266.453 572.939 262.738C572.939 259.023 573.942 255.702 575.947 252.776C577.986 249.817 580.83 247.483 584.479 245.773C588.161 244.064 592.452 243.209 597.351 243.209C602.743 243.209 607.312 244.245 611.061 246.316C614.841 248.354 617.718 251.034 619.691 254.354C621.664 257.642 622.65 261.16 622.65 264.908H613.181C613.181 262.212 612.606 259.829 611.455 257.757C610.304 255.653 608.562 254.009 606.228 252.826C603.893 251.609 600.934 251.001 597.351 251.001C593.964 251.001 591.17 251.511 588.967 252.53C586.764 253.549 585.12 254.93 584.035 256.672C582.983 258.415 582.457 260.404 582.457 262.64C582.457 264.645 583.032 266.421 584.183 267.966C585.367 269.511 587.191 270.908 589.657 272.158C592.123 273.407 595.329 274.574 599.274 275.659C604.699 277.204 609.154 278.98 612.639 280.985C616.124 282.991 618.688 285.358 620.332 288.087C622.009 290.816 622.847 294.038 622.847 297.753C622.847 301.632 621.812 305.019 619.74 307.912C617.669 310.805 614.759 313.041 611.011 314.619C607.263 316.197 602.858 316.986 597.794 316.986C594.474 316.986 591.202 316.526 587.98 315.605C584.791 314.685 581.882 313.304 579.251 311.463C576.654 309.622 574.566 307.353 572.988 304.657C571.443 301.928 570.67 298.772 570.67 295.188H580.139C580.139 297.654 580.616 299.775 581.569 301.55C582.523 303.293 583.821 304.739 585.465 305.89C587.142 307.041 589.033 307.896 591.137 308.455C593.274 308.981 595.493 309.244 597.794 309.244C601.115 309.244 603.926 308.783 606.228 307.863C608.529 306.942 610.271 305.627 611.455 303.917C612.672 302.208 613.28 300.186 613.28 297.852ZM647.111 306.531L660.821 262.64H666.837L665.654 271.369L651.697 316H645.829L647.111 306.531ZM637.889 262.64L649.577 307.024L650.415 316H644.25L628.765 262.64H637.889ZM679.956 306.679L691.101 262.64H700.175L684.69 316H678.575L679.956 306.679ZM668.169 262.64L681.583 305.792L683.112 316H677.292L662.941 271.27L661.758 262.64H668.169ZM731.688 316.986C726.724 316.986 722.401 315.885 718.718 313.682C715.069 311.479 712.225 308.438 710.187 304.559C708.181 300.646 707.178 296.191 707.178 291.194V289.123C707.178 283.303 708.28 278.355 710.482 274.278C712.718 270.169 715.611 267.045 719.162 264.908C722.746 262.738 726.527 261.653 730.505 261.653C735.601 261.653 739.76 262.804 742.982 265.105C746.237 267.374 748.62 270.481 750.133 274.426C751.678 278.339 752.451 282.794 752.451 287.791V291.884H712.603V284.438H743.327V283.747C743.196 281.38 742.702 279.078 741.848 276.843C741.026 274.607 739.711 272.766 737.902 271.319C736.094 269.873 733.628 269.149 730.505 269.149C727.743 269.149 725.294 269.922 723.157 271.467C721.02 273.013 719.343 275.281 718.126 278.273C716.943 281.232 716.351 284.848 716.351 289.123V291.194C716.351 294.547 716.976 297.621 718.225 300.416C719.474 303.178 721.283 305.397 723.65 307.074C726.017 308.718 728.861 309.54 732.182 309.54C735.404 309.54 738.132 308.882 740.368 307.567C742.604 306.252 744.56 304.493 746.237 302.29L751.76 306.679C750.051 309.309 747.601 311.693 744.412 313.83C741.223 315.934 736.982 316.986 731.688 316.986ZM796.737 305.644V240.25H805.91V316H797.526L796.737 305.644ZM760.834 289.912V288.876C760.834 283.451 761.706 278.7 763.448 274.624C765.224 270.514 767.689 267.325 770.846 265.056C774.002 262.788 777.701 261.653 781.942 261.653C786.413 261.653 790.145 262.689 793.137 264.76C796.129 266.799 798.463 269.725 800.14 273.539C801.849 277.319 802.951 281.84 803.444 287.101V291.638C802.951 296.832 801.866 301.337 800.189 305.15C798.512 308.931 796.161 311.857 793.137 313.929C790.112 315.967 786.347 316.986 781.843 316.986C777.668 316.986 774.002 315.819 770.846 313.485C767.689 311.118 765.224 307.896 763.448 303.819C761.706 299.742 760.834 295.106 760.834 289.912ZM770.007 288.876V289.912C770.007 293.43 770.5 296.668 771.487 299.627C772.473 302.553 774.002 304.887 776.073 306.63C778.145 308.372 780.824 309.244 784.112 309.244C787.137 309.244 789.619 308.603 791.559 307.32C793.531 306.038 795.109 304.345 796.293 302.241C797.477 300.137 798.397 297.852 799.055 295.386V283.5C798.66 281.692 798.085 279.95 797.329 278.273C796.605 276.563 795.652 275.051 794.468 273.736C793.318 272.388 791.887 271.319 790.178 270.53C788.501 269.741 786.512 269.347 784.21 269.347C780.89 269.347 778.177 270.234 776.073 272.01C774.002 273.785 772.473 276.152 771.487 279.111C770.5 282.07 770.007 285.325 770.007 288.876ZM830.025 262.64V316H820.853V262.64H830.025ZM820.162 248.486C820.162 247.006 820.606 245.757 821.494 244.738C822.414 243.719 823.762 243.209 825.538 243.209C827.28 243.209 828.612 243.719 829.532 244.738C830.486 245.757 830.962 247.006 830.962 248.486C830.962 249.9 830.486 251.116 829.532 252.135C828.612 253.122 827.28 253.615 825.538 253.615C823.762 253.615 822.414 253.122 821.494 252.135C820.606 251.116 820.162 249.9 820.162 248.486ZM875.742 301.846C875.742 300.531 875.446 299.315 874.854 298.197C874.295 297.046 873.128 296.01 871.353 295.09C869.61 294.136 866.98 293.314 863.462 292.624C859.517 291.802 856.097 290.75 853.204 289.468C850.344 288.186 848.125 286.558 846.546 284.585C845.001 282.613 844.229 280.163 844.229 277.237C844.229 274.41 845.034 271.829 846.645 269.495C848.289 267.127 850.59 265.237 853.549 263.823C856.541 262.377 860.026 261.653 864.004 261.653C868.278 261.653 871.928 262.41 874.953 263.922C877.977 265.434 880.295 267.456 881.906 269.988C883.517 272.486 884.323 275.265 884.323 278.322H875.199C875.199 276.119 874.229 274.048 872.29 272.108C870.383 270.136 867.621 269.149 864.004 269.149C861.473 269.149 859.418 269.544 857.84 270.333C856.295 271.089 855.16 272.059 854.437 273.243C853.747 274.426 853.401 275.676 853.401 276.991C853.401 278.306 853.73 279.44 854.388 280.394C855.045 281.347 856.245 282.202 857.988 282.958C859.763 283.714 862.328 284.47 865.681 285.227C870.054 286.213 873.654 287.396 876.481 288.777C879.309 290.158 881.413 291.851 882.794 293.857C884.175 295.862 884.865 298.295 884.865 301.156C884.865 304.279 884.01 307.041 882.301 309.441C880.591 311.808 878.191 313.666 875.101 315.014C872.01 316.329 868.394 316.986 864.251 316.986C859.549 316.986 855.571 316.148 852.316 314.471C849.062 312.794 846.596 310.625 844.919 307.961C843.242 305.298 842.404 302.487 842.404 299.528H851.577C851.708 302.027 852.431 304.016 853.747 305.496C855.062 306.942 856.673 307.978 858.58 308.603C860.486 309.194 862.377 309.49 864.251 309.49C866.75 309.49 868.837 309.161 870.514 308.504C872.224 307.846 873.522 306.942 874.41 305.792C875.298 304.641 875.742 303.326 875.742 301.846ZM905.973 240.25V316H896.849V240.25H905.973ZM903.803 287.298L900.005 287.15C900.071 282.251 901.008 277.895 902.816 274.081C904.625 270.234 907.14 267.21 910.362 265.007C913.617 262.771 917.398 261.653 921.705 261.653C925.222 261.653 928.247 262.294 930.779 263.577C933.343 264.859 935.316 266.93 936.697 269.791C938.111 272.618 938.817 276.366 938.817 281.035V316H929.645V280.936C929.645 278.141 929.234 275.906 928.412 274.229C927.59 272.519 926.39 271.286 924.812 270.53C923.233 269.741 921.294 269.347 918.992 269.347C916.724 269.347 914.652 269.823 912.778 270.777C910.937 271.73 909.343 273.045 907.995 274.722C906.68 276.399 905.644 278.322 904.888 280.492C904.164 282.629 903.803 284.898 903.803 287.298ZM993.213 316H984.09V257.018C984.09 251.264 985.635 246.858 988.726 243.801C991.849 240.743 996.139 239.214 1001.6 239.214C1002.65 239.214 1003.7 239.28 1004.75 239.412C1005.84 239.543 1006.89 239.74 1007.91 240.003L1007.42 247.45C1006.73 247.286 1005.94 247.171 1005.05 247.105C1004.19 247.039 1003.34 247.006 1002.48 247.006C999.559 247.006 997.274 247.878 995.63 249.62C994.019 251.33 993.213 253.796 993.213 257.018V316ZM1004.56 262.64V269.643H975.657V262.64H1004.56ZM1012.3 289.912V288.777C1012.3 283.616 1013.29 278.996 1015.26 274.919C1017.23 270.843 1020.03 267.621 1023.64 265.253C1027.26 262.853 1031.55 261.653 1036.51 261.653C1041.54 261.653 1045.87 262.853 1049.48 265.253C1053.13 267.621 1055.94 270.843 1057.92 274.919C1059.89 278.996 1060.88 283.616 1060.88 288.777V289.912C1060.88 295.041 1059.89 299.66 1057.92 303.77C1055.94 307.846 1053.15 311.068 1049.53 313.436C1045.92 315.803 1041.61 316.986 1036.61 316.986C1031.61 316.986 1027.29 315.803 1023.64 313.436C1020.03 311.068 1017.23 307.846 1015.26 303.77C1013.29 299.66 1012.3 295.041 1012.3 289.912ZM1021.42 288.777V289.912C1021.42 293.43 1021.98 296.684 1023.1 299.676C1024.22 302.635 1025.89 305.019 1028.13 306.827C1030.4 308.603 1033.23 309.49 1036.61 309.49C1039.97 309.49 1042.76 308.603 1045 306.827C1047.23 305.019 1048.91 302.635 1050.03 299.676C1051.14 296.684 1051.7 293.43 1051.7 289.912V288.777C1051.7 285.292 1051.13 282.07 1049.98 279.111C1048.86 276.119 1047.18 273.719 1044.95 271.911C1042.71 270.07 1039.9 269.149 1036.51 269.149C1033.16 269.149 1030.37 270.07 1028.13 271.911C1025.89 273.719 1024.22 276.119 1023.1 279.111C1021.98 282.07 1021.42 285.292 1021.42 288.777ZM1081.44 271.023V316H1072.32V262.64H1081.19L1081.44 271.023ZM1098.11 262.344L1098.06 270.826C1097.3 270.662 1096.58 270.563 1095.89 270.53C1095.23 270.465 1094.48 270.432 1093.62 270.432C1090.79 270.432 1088.43 271.007 1086.52 272.158C1084.61 273.308 1083.12 274.887 1082.03 276.892C1080.98 278.865 1080.32 281.15 1080.06 283.747L1077.5 285.227C1077.5 280.952 1078.07 277.04 1079.22 273.489C1080.37 269.906 1082.16 267.045 1084.6 264.908C1087.06 262.738 1090.22 261.653 1094.07 261.653C1094.72 261.653 1095.48 261.736 1096.33 261.9C1097.19 262.031 1097.78 262.179 1098.11 262.344ZM1127.7 316.986C1122.73 316.986 1118.41 315.885 1114.73 313.682C1111.08 311.479 1108.24 308.438 1106.2 304.559C1104.19 300.646 1103.19 296.191 1103.19 291.194V289.123C1103.19 283.303 1104.29 278.355 1106.49 274.278C1108.73 270.169 1111.62 267.045 1115.17 264.908C1118.76 262.738 1122.54 261.653 1126.52 261.653C1131.61 261.653 1135.77 262.804 1138.99 265.105C1142.25 267.374 1144.63 270.481 1146.14 274.426C1147.69 278.339 1148.46 282.794 1148.46 287.791V291.884H1108.61V284.438H1139.34V283.747C1139.21 281.38 1138.71 279.078 1137.86 276.843C1137.04 274.607 1135.72 272.766 1133.91 271.319C1132.1 269.873 1129.64 269.149 1126.52 269.149C1123.75 269.149 1121.3 269.922 1119.17 271.467C1117.03 273.013 1115.35 275.281 1114.14 278.273C1112.95 281.232 1112.36 284.848 1112.36 289.123V291.194C1112.36 294.547 1112.99 297.621 1114.24 300.416C1115.49 303.178 1117.29 305.397 1119.66 307.074C1122.03 308.718 1124.87 309.54 1128.19 309.54C1131.41 309.54 1134.14 308.882 1136.38 307.567C1138.61 306.252 1140.57 304.493 1142.25 302.29L1147.77 306.679C1146.06 309.309 1143.61 311.693 1140.42 313.83C1137.23 315.934 1132.99 316.986 1127.7 316.986ZM1190.18 301.846C1190.18 300.531 1189.89 299.315 1189.3 298.197C1188.74 297.046 1187.57 296.01 1185.79 295.09C1184.05 294.136 1181.42 293.314 1177.9 292.624C1173.96 291.802 1170.54 290.75 1167.65 289.468C1164.79 288.186 1162.57 286.558 1160.99 284.585C1159.44 282.613 1158.67 280.163 1158.67 277.237C1158.67 274.41 1159.48 271.829 1161.09 269.495C1162.73 267.127 1165.03 265.237 1167.99 263.823C1170.98 262.377 1174.47 261.653 1178.45 261.653C1182.72 261.653 1186.37 262.41 1189.39 263.922C1192.42 265.434 1194.74 267.456 1196.35 269.988C1197.96 272.486 1198.76 275.265 1198.76 278.322H1189.64C1189.64 276.119 1188.67 274.048 1186.73 272.108C1184.82 270.136 1182.06 269.149 1178.45 269.149C1175.91 269.149 1173.86 269.544 1172.28 270.333C1170.74 271.089 1169.6 272.059 1168.88 273.243C1168.19 274.426 1167.84 275.676 1167.84 276.991C1167.84 278.306 1168.17 279.44 1168.83 280.394C1169.49 281.347 1170.69 282.202 1172.43 282.958C1174.2 283.714 1176.77 284.47 1180.12 285.227C1184.5 286.213 1188.1 287.396 1190.92 288.777C1193.75 290.158 1195.85 291.851 1197.24 293.857C1198.62 295.862 1199.31 298.295 1199.31 301.156C1199.31 304.279 1198.45 307.041 1196.74 309.441C1195.03 311.808 1192.63 313.666 1189.54 315.014C1186.45 316.329 1182.83 316.986 1178.69 316.986C1173.99 316.986 1170.01 316.148 1166.76 314.471C1163.5 312.794 1161.04 310.625 1159.36 307.961C1157.68 305.298 1156.85 302.487 1156.85 299.528H1166.02C1166.15 302.027 1166.87 304.016 1168.19 305.496C1169.5 306.942 1171.11 307.978 1173.02 308.603C1174.93 309.194 1176.82 309.49 1178.69 309.49C1181.19 309.49 1183.28 309.161 1184.96 308.504C1186.67 307.846 1187.96 306.942 1188.85 305.792C1189.74 304.641 1190.18 303.326 1190.18 301.846ZM1233.63 262.64V269.643H1204.78V262.64H1233.63ZM1214.55 249.669H1223.67V302.783C1223.67 304.591 1223.95 305.956 1224.51 306.876C1225.07 307.797 1225.79 308.405 1226.68 308.701C1227.56 308.997 1228.52 309.145 1229.54 309.145C1230.29 309.145 1231.08 309.079 1231.9 308.948C1232.76 308.783 1233.4 308.652 1233.83 308.553L1233.88 316C1233.15 316.23 1232.2 316.444 1231.02 316.641C1229.87 316.871 1228.47 316.986 1226.83 316.986C1224.59 316.986 1222.53 316.542 1220.66 315.655C1218.79 314.767 1217.29 313.288 1216.17 311.216C1215.09 309.112 1214.55 306.285 1214.55 302.734V249.669ZM1244.53 309.441C1244.53 307.633 1245.17 306.087 1246.45 304.805C1247.74 303.49 1249.28 302.833 1251.09 302.833C1252.9 302.833 1254.44 303.49 1255.72 304.805C1257.01 306.087 1257.65 307.633 1257.65 309.441C1257.65 311.249 1257.01 312.794 1255.72 314.077C1254.44 315.359 1252.9 316 1251.09 316C1249.28 316 1247.74 315.375 1246.45 314.126C1245.17 312.877 1244.53 311.315 1244.53 309.441Z" fill="black"/>
</svg>
